<svg width="160" height="58" viewBox="0 0 160 58" fill="none" xmlns="http://www.w3.org/2000/svg">
<g clip-path="url(#clip0)">
<path d="M38.7882 10.0748C38.7725 10.1555 38.7569 10.2362 38.7412 10.333C38.9923 10.3815 39.212 10.4137 39.4317 10.446C39.4788 10.4622 39.5572 10.4622 39.5729 10.4944C39.6514 10.7204 39.8711 10.672 40.028 10.7527C40.2634 10.8818 40.4675 11.0593 40.6715 11.2207C40.6872 11.2368 40.6872 11.253 40.7029 11.2691C40.9069 11.4305 41.1109 11.5758 41.3149 11.7372C41.362 11.7694 41.3934 11.834 41.4405 11.8824C41.4876 11.947 41.5033 12.0115 41.566 12.0599C41.8171 12.3182 41.9898 12.6248 42.1467 12.9476C42.1938 13.0283 42.2722 13.0929 42.3036 13.1735C42.4449 13.5448 42.6175 13.916 42.7274 14.3033C42.8058 14.5938 42.8215 14.9005 42.8529 15.2071C42.8843 15.5137 42.9314 15.8365 42.8843 16.127C42.8058 16.6758 42.8058 17.2407 42.5233 17.741C42.4606 17.8378 42.4763 17.9831 42.4292 18.0799C42.2722 18.435 42.0839 18.7739 41.8328 19.0805C41.6916 19.2419 41.5974 19.4517 41.4876 19.6293C41.3777 19.7907 41.2522 19.9359 41.1423 20.0812C41.0011 20.2587 40.8755 20.4362 40.7343 20.6138C40.6087 20.759 40.4675 20.9043 40.3262 21.0495C40.2634 21.1141 40.2164 21.1948 40.1693 21.2593C40.1693 21.2755 40.1693 21.2916 40.1536 21.2916C39.9653 21.3723 39.8711 21.5498 39.7456 21.6951C39.6828 21.7758 39.6043 21.8565 39.5415 21.9372C39.5258 21.9533 39.5258 22.0017 39.5102 22.0017C39.259 22.034 39.2277 22.3245 39.0236 22.4214C38.9766 22.4536 38.9452 22.5182 38.9138 22.5666C38.8824 22.615 38.851 22.6634 38.8039 22.6957C38.7412 22.7603 38.6784 22.841 38.6156 22.9055C38.5999 22.9217 38.5842 22.954 38.5685 22.9701C38.3802 23.1154 38.1448 23.2283 38.0192 23.422C37.8937 23.6318 37.6112 23.6802 37.5484 23.9546C37.5484 23.9869 37.5014 24.0192 37.47 24.0192C37.3444 24.0353 37.2659 24.116 37.2189 24.2451C37.2032 24.2935 37.1404 24.3258 37.0933 24.3581C36.905 24.5033 36.7794 24.7293 36.5754 24.8584C36.497 24.9068 36.4499 24.9875 36.3871 25.0682C36.3557 25.1166 36.3086 25.1489 36.2772 25.1973C36.2145 25.2619 36.1674 25.3264 36.1046 25.391C36.0889 25.4071 36.0732 25.4071 36.0575 25.4233C35.9163 25.6008 35.775 25.7622 35.6181 25.9397C35.5867 25.9881 35.5239 26.0043 35.4769 26.0527C35.3984 26.1173 35.3356 26.198 35.2728 26.2787C35.2415 26.3109 35.2101 26.3432 35.1787 26.3755C35.1002 26.4562 35.0217 26.5369 34.959 26.6176C34.959 26.6337 34.959 26.6499 34.9433 26.6499C34.7393 26.7144 34.6451 26.9081 34.5038 27.0533C34.4882 27.0695 34.4725 27.0533 34.4725 27.0695C34.3469 27.2954 34.1115 27.4084 33.9546 27.6021C33.9232 27.6505 33.8604 27.6989 33.829 27.7312C33.7819 27.7957 33.7192 27.8603 33.6721 27.9087C33.6407 27.941 33.625 28.0056 33.5936 28.0217C33.4681 28.0863 33.4053 28.167 33.3268 28.2799C33.217 28.4575 33.0286 28.5704 32.8717 28.7157C32.8089 28.7802 32.7618 28.8448 32.6991 28.9094C32.6677 28.9416 32.6206 28.9901 32.5735 29.0223C32.5107 29.103 32.4323 29.1837 32.3695 29.2644C32.3538 29.2806 32.3538 29.3128 32.3538 29.3128C32.1498 29.3613 32.087 29.5549 31.9458 29.6679C31.8516 29.7647 31.7261 29.797 31.7104 29.9584C31.7104 29.9907 31.6476 30.0068 31.6319 30.023C31.5377 30.1037 31.4436 30.1844 31.3494 30.2651C31.318 30.2973 31.2709 30.3296 31.2395 30.3619C31.1768 30.4264 31.1297 30.491 31.0826 30.5556C31.0669 30.5717 31.0669 30.6201 31.0512 30.6201C30.8943 30.7654 30.7374 30.8945 30.5804 31.0397C30.5333 31.0882 30.4862 31.1527 30.4392 31.2173C30.4078 31.2657 30.3607 31.298 30.3293 31.3302C30.2508 31.4109 30.1724 31.4916 30.0939 31.5723C30.0782 31.5885 30.0468 31.6208 30.0311 31.6369C30.0154 31.653 29.984 31.653 29.9684 31.6692C29.7957 31.8467 29.6231 32.0404 29.4505 32.2179C29.4191 32.2663 29.372 32.2986 29.3249 32.3309C29.1523 32.4761 29.011 32.6698 28.8227 32.8151C28.6187 32.9603 28.4618 33.1863 28.2891 33.3961C28.1322 33.5736 27.9909 33.7511 27.8497 33.9125C27.834 33.9448 27.8026 33.961 27.7712 33.9771C27.5986 34.1223 27.3946 34.2515 27.269 34.429C27.0964 34.6872 26.7982 34.8325 26.657 35.0746C26.5314 35.3005 26.2803 35.3651 26.1548 35.591C26.0606 35.7686 25.8566 35.8977 25.6997 36.0429C25.5427 36.2043 25.4015 36.3818 25.2445 36.5594C25.2288 36.5755 25.2132 36.6078 25.1975 36.6239C25.0091 36.7692 24.8208 36.9144 24.6482 37.0758C24.4912 37.2372 24.35 37.4309 24.1931 37.5923C24.0361 37.7537 23.8478 37.8828 23.6909 38.0442C23.5339 38.1894 23.4084 38.367 23.2671 38.5284C23.2514 38.5445 23.2514 38.5768 23.2357 38.5768C23.0788 38.722 22.9219 38.8673 22.7649 38.9964C22.7492 39.0125 22.7335 39.0125 22.7179 39.0287C22.5609 39.2062 22.4197 39.3676 22.2627 39.5451C22.2313 39.5936 22.1686 39.6258 22.1372 39.6581C21.9646 39.8357 21.7919 40.0132 21.6193 40.2069C21.5879 40.2553 21.5408 40.2876 21.4937 40.3198C21.431 40.3844 21.3682 40.4651 21.3054 40.5296C21.274 40.5619 21.2269 40.6103 21.1799 40.6426C21.1014 40.7072 21.0386 40.7717 20.9601 40.8363C20.8974 40.8847 20.8503 40.9493 20.7875 41.0138C20.7404 41.0622 20.7091 41.1107 20.662 41.1591C20.6149 41.2236 20.5521 41.272 20.505 41.3366C20.458 41.385 20.3952 41.4496 20.3481 41.498C20.3167 41.5464 20.2696 41.5787 20.2382 41.6271C20.1598 41.7078 20.0813 41.8046 20.0028 41.8853C19.9871 41.9015 19.9714 41.9338 19.9558 41.9499C19.7831 42.0951 19.5948 42.2243 19.4379 42.3857C19.2809 42.5471 19.1554 42.7407 18.9984 42.9021C18.8415 43.0635 18.6689 43.2088 18.4962 43.3702C18.355 43.4993 18.2137 43.6122 18.1039 43.7736C17.9313 44.0157 17.7272 44.1933 17.5075 44.3869C17.3349 44.5483 17.1937 44.7259 17.0367 44.8872C16.8798 45.0486 16.7071 45.21 16.5502 45.3714C16.5031 45.4037 16.4717 45.4521 16.4247 45.5005C16.3776 45.549 16.2991 45.5974 16.2677 45.6619C16.1265 45.8879 15.8597 45.9847 15.7498 46.2268C15.7341 46.2591 15.7027 46.2914 15.6714 46.3075C15.5301 46.3398 15.483 46.4528 15.4046 46.5657C15.279 46.7433 15.075 46.8724 14.9181 47.0338C14.871 47.0822 14.8239 47.1467 14.7768 47.2113C14.7454 47.2597 14.6983 47.292 14.667 47.3404C14.6042 47.405 14.5571 47.4695 14.51 47.5502C14.4943 47.5664 14.4943 47.5986 14.4786 47.5986C14.2746 47.6632 14.1648 47.8569 14.0235 48.0021C13.945 48.0828 13.8352 48.1151 13.7724 48.2604C13.741 48.3411 13.5527 48.3411 13.4429 48.3895C13.3801 48.4217 13.3173 48.4702 13.2388 48.5024C13.1917 48.5186 13.129 48.5509 13.0662 48.5509C12.3129 48.5509 11.5753 48.5509 10.822 48.5509C7.27521 48.5509 3.74412 48.5509 0.197335 48.5509C0.118866 48.5509 0.0247044 48.5509 -0.069458 48.5509C-0.069458 48.3895 -0.069458 48.2604 -0.069458 48.1151C0.150254 48.1312 0.275804 48.0344 0.338579 47.8407C0.338579 47.8246 0.369967 47.7923 0.385661 47.7762C0.558292 47.6309 0.730922 47.4857 0.903553 47.3243C1.06049 47.179 1.18604 47.0015 1.32728 46.8401C1.46853 46.6949 1.60977 46.5496 1.75102 46.4043C2.06489 46.0977 2.36307 45.7749 2.69264 45.4844C2.88096 45.323 2.95943 45.0648 3.22623 44.9679C3.33608 44.9195 3.41455 44.7743 3.50871 44.6613C3.66565 44.4838 3.82259 44.3062 3.99522 44.1287C4.13646 43.9834 4.27771 43.8382 4.41895 43.7091C4.60728 43.5154 4.77991 43.3217 4.96823 43.1281C5.09378 42.999 5.21933 42.886 5.32919 42.7569C5.40766 42.66 5.48613 42.5632 5.56459 42.4664C5.58029 42.4502 5.58029 42.4179 5.59598 42.4179C5.83139 42.3695 5.92555 42.1274 6.08249 41.9983C6.27081 41.8531 6.41206 41.6432 6.58469 41.4657C6.72593 41.3205 6.88287 41.1752 7.02411 41.03C7.19674 40.8524 7.35368 40.6749 7.51062 40.4974C7.52631 40.4812 7.542 40.4489 7.5577 40.4328C7.74602 40.2714 7.96573 40.1262 8.13837 39.9648C8.2953 39.8195 8.42085 39.6258 8.5621 39.4644C8.70334 39.3192 8.84458 39.1739 8.98583 39.0448C9.18985 38.835 9.37817 38.6252 9.58219 38.4315C9.72343 38.2863 9.89607 38.141 10.0373 37.9958C10.1942 37.8344 10.3512 37.6569 10.5081 37.4793C10.6494 37.3341 10.7906 37.1888 10.9319 37.0436C11.1045 36.8822 11.2771 36.7046 11.4497 36.5432C11.6538 36.3496 11.8421 36.1559 12.0461 35.9622C12.1874 35.817 12.3129 35.6556 12.4385 35.4942C12.5797 35.3328 12.7366 35.1875 12.8779 35.0261C13.0662 34.8325 13.2545 34.6388 13.4272 34.4451C13.4428 34.429 13.4429 34.429 13.4585 34.4129C13.6312 34.2676 13.8352 34.1223 13.9921 33.9609C14.1648 33.7996 14.306 33.6059 14.4786 33.4284C14.5414 33.3638 14.6356 33.3315 14.6983 33.267C14.8396 33.1056 14.9651 32.928 15.1064 32.7828C15.2476 32.6214 15.4203 32.4761 15.5772 32.3147C15.7341 32.1534 15.8911 31.9758 16.048 31.7983C16.1579 31.6692 16.2677 31.5401 16.3776 31.4271C16.5502 31.2657 16.7385 31.1204 16.9112 30.959C16.9269 30.9429 16.9426 30.9429 16.9582 30.9268C17.0995 30.7492 17.2564 30.5717 17.3977 30.4103C17.5075 30.2973 17.6174 30.1844 17.7272 30.0714C17.8842 29.91 18.0568 29.7647 18.2137 29.6033C18.355 29.4581 18.4805 29.2806 18.6375 29.1353C18.8101 28.9578 19.0141 28.8125 19.1868 28.6511C19.2025 28.635 19.2181 28.635 19.2181 28.635C19.3594 28.4897 19.5006 28.3445 19.6419 28.1992C19.8145 28.0217 20.0028 27.8442 20.1912 27.6505C20.3481 27.4891 20.4736 27.3116 20.6306 27.1502C20.8032 26.9888 20.8817 26.7306 21.1328 26.6337C21.1485 26.6337 21.1642 26.6176 21.1799 26.6014C21.3054 26.44 21.4467 26.2787 21.5722 26.1173C21.6193 26.0688 21.6821 26.0366 21.7291 26.0043C21.7919 25.9559 21.839 25.8913 21.9018 25.8268C21.9489 25.7783 21.9802 25.7299 22.0273 25.6976C22.0587 25.6654 22.1058 25.6654 22.1372 25.6169C22.2941 25.4394 22.4354 25.2619 22.5923 25.0843C22.7335 24.9229 22.9219 24.81 23.0631 24.6486C23.22 24.4872 23.3456 24.3097 23.4868 24.1483C23.5339 24.0837 23.5967 24.0353 23.6595 23.9869C23.6909 23.9707 23.7222 23.9707 23.7379 23.9385C23.8792 23.7771 24.0047 23.6157 24.146 23.4543C24.1774 23.422 24.1931 23.3736 24.2244 23.3736C24.4442 23.3413 24.5069 23.1638 24.5697 22.9862C24.6482 22.7441 24.8365 22.5666 24.8051 22.2922C24.7894 21.9372 24.6482 21.6305 24.4912 21.3239C24.3343 21.0172 24.0047 20.9527 23.785 20.7429C23.7379 20.6945 23.6124 20.6945 23.5182 20.6945C21.8547 20.6945 20.2069 20.6945 18.5433 20.6945C16.9269 20.6945 15.3104 20.6945 13.694 20.6783C13.4429 20.6783 13.2074 20.646 12.9563 20.6299C12.9093 20.6299 12.8308 20.5976 12.8308 20.5815C12.7837 20.404 12.6425 20.3717 12.5169 20.3394C12.2972 20.2748 12.2658 20.0327 12.1403 19.8875C12.0618 19.8068 11.999 19.71 11.9206 19.6293C11.8892 19.5808 11.8421 19.5163 11.8421 19.4679C11.8421 19.2258 11.8735 18.9837 11.8578 18.7416C11.8421 18.435 11.9519 18.2251 12.0932 17.9508C12.2501 17.6603 12.5797 17.6764 12.7523 17.4343C12.7994 17.3698 12.9563 17.3536 13.0662 17.3536C13.3487 17.3375 13.6469 17.3213 13.945 17.3052C14.0235 17.3052 14.0863 17.2407 14.1491 17.1922C14.1491 17.16 14.1334 17.1277 14.1334 17.0954C14.4786 17.0954 14.8082 17.1115 15.1535 17.0954C15.4046 17.0793 15.6557 17.0308 15.9225 16.9824C15.9382 16.9824 15.9538 16.9824 15.9538 16.9663C16.1108 16.8049 16.2677 16.6596 16.409 16.4821C16.5031 16.353 16.6287 16.2077 16.6444 16.0625C16.6915 15.6429 16.6758 15.2232 16.6915 14.8036C16.6915 14.7875 16.6758 14.7713 16.6758 14.7552C16.5345 14.6099 16.3933 14.4486 16.252 14.3033H16.2363C15.9852 13.8675 15.5458 14.0128 15.2005 13.9644C14.7925 13.916 14.3845 13.9482 13.9137 13.9482C13.9921 13.8514 14.0235 13.8191 14.0549 13.7707C14.0235 13.7546 14.0078 13.7384 13.9921 13.7384C13.537 13.7384 13.0662 13.7384 12.6111 13.7223C12.1717 13.7062 11.7479 13.6739 11.3242 13.6255C11.2614 13.6255 11.183 13.5609 11.1202 13.5125C11.0731 13.4802 11.0417 13.4156 10.9946 13.4156C10.6964 13.3834 10.5552 13.109 10.3355 12.9476C10.2413 12.883 10.2099 12.7217 10.1629 12.5925C10.0373 12.1729 9.94315 11.7372 10.1942 11.3175C10.2727 11.1884 10.3041 11.027 10.3669 10.8979C10.414 10.8172 10.4767 10.7688 10.5552 10.7042C10.6023 10.6558 10.6808 10.6397 10.7121 10.5913C10.8691 10.3815 11.0731 10.3008 11.3242 10.3008C11.5125 10.2846 11.5753 10.1878 11.5596 10.0103C20.6777 10.0748 29.733 10.0748 38.7882 10.0748Z" fill="#F57600"/>
<path d="M71.2272 10.0748C71.2115 10.2201 71.3057 10.2201 71.3998 10.2201C71.6509 10.2201 71.8863 10.2201 72.1374 10.2201C72.9064 10.2362 73.6754 10.2362 74.4444 10.2685C75.1193 10.3008 75.7941 10.3331 76.4532 10.4138C76.8456 10.4622 77.2379 10.5913 77.6146 10.6881C77.6303 10.6881 77.646 10.7043 77.646 10.7043C78.0854 10.7043 78.4777 10.9141 78.8858 11.0432C79.0741 11.1077 79.2781 11.1562 79.4507 11.2369C80.0314 11.5112 80.6278 11.7533 81.177 12.1084C81.8519 12.528 82.511 12.996 83.0603 13.6093C83.4056 13.9967 83.7822 14.3517 84.0961 14.7714C84.7081 15.5622 85.2417 16.4337 85.6498 17.3537C85.7596 17.6119 85.8852 17.854 85.995 18.1283C86.0421 18.2252 86.0421 18.3381 86.0578 18.435C86.1834 18.9192 86.3403 19.4033 86.4501 19.8875C86.56 20.404 86.6071 20.9527 86.6856 21.4692C86.8425 22.4859 86.8268 23.5027 86.764 24.5195C86.7326 24.9875 86.6856 25.4556 86.6071 25.9236C86.4972 26.4885 86.356 27.0534 86.2147 27.6182C86.1363 27.9572 86.0735 28.2961 85.9793 28.6189C85.9009 28.8771 85.7596 29.1031 85.6655 29.3451C85.3202 30.1521 84.9122 30.9107 84.41 31.6046C83.7979 32.4278 83.0917 33.1379 82.2756 33.735C81.8362 34.0578 81.3811 34.3806 80.9259 34.6711C80.6592 34.8486 80.361 34.9616 80.0785 35.1069C79.7803 35.2521 79.4664 35.3974 79.1682 35.5265C78.7916 35.6717 78.4306 35.8331 78.0383 35.93C77.3635 36.1075 76.6729 36.2528 75.9981 36.3657C75.6685 36.4303 75.3076 36.4142 74.978 36.4142C73.2046 36.4142 71.4312 36.4142 69.6421 36.4142C69.4381 36.4142 69.2341 36.4303 69.0144 36.4303C68.8732 36.4303 68.8261 36.4787 68.8261 36.624C68.8261 37.3987 68.8261 38.1733 68.8261 38.948C68.8261 40.5135 68.8575 42.079 68.8261 43.6446C68.8104 44.3386 68.7319 45.0487 68.4337 45.6943C68.2925 45.9848 68.1983 46.3237 68.0257 46.5981C67.8374 46.8886 67.602 47.1307 67.3666 47.3727C66.9114 47.8408 66.3465 48.1152 65.7501 48.3411C65.6088 48.3895 65.4676 48.4057 65.3107 48.4541C65.2322 48.4864 65.1537 48.5348 65.0753 48.567C65.0282 48.5832 64.9811 48.5993 64.934 48.5993C63.9453 48.5993 62.9566 48.5993 61.9836 48.5993C61.9365 48.5993 61.8737 48.5509 61.8267 48.5348C61.7639 48.5025 61.7168 48.4864 61.654 48.4541C61.2303 48.2927 60.7595 48.1959 60.3828 47.9699C59.5825 47.4857 58.9233 46.8401 58.5937 45.9202C58.4682 45.5813 58.3897 45.2424 58.2642 44.9034C58.0445 44.274 58.0759 43.6123 58.0759 42.9506C58.0759 37.9151 58.0759 32.8635 58.0759 27.828C58.0759 27.3923 58.0759 27.3923 58.5153 27.3923C58.8135 27.3923 59.1116 27.36 59.3941 27.36C60.0847 27.36 60.7752 27.3923 61.4657 27.3923C65.6873 27.3923 69.9089 27.3923 74.1306 27.3923C74.8682 27.3923 75.5587 27.2148 76.1864 26.7951C76.7357 26.4239 77.1438 25.9236 77.3792 25.3103C77.6617 24.5841 77.7244 23.8416 77.4733 23.067C77.2536 22.3891 76.924 21.8242 76.3748 21.3723C75.8726 20.9527 75.2919 20.7268 74.6484 20.6945C73.8481 20.6622 73.0477 20.6461 72.2316 20.6461C68.1355 20.6461 64.0238 20.6461 59.9277 20.6461C59.3627 20.6461 58.7978 20.6461 58.2328 20.6461C57.9974 20.6461 57.9817 20.6138 57.9817 20.3717C57.9974 19.6454 57.9974 18.9353 58.0131 18.209C58.0288 17.5796 58.0759 16.9663 58.1072 16.3369C58.1229 15.885 58.1543 15.4169 58.1857 14.965C58.2171 14.5131 58.2171 14.0451 58.327 13.5932C58.4839 12.9315 58.7507 12.3343 59.1901 11.8017C59.5354 11.3821 59.9434 11.0593 60.3985 10.8172C60.7752 10.6236 61.1832 10.5267 61.5913 10.4299C62.2975 10.2362 63.0351 10.3008 63.757 10.3008C64.9968 10.2846 66.2366 10.2846 67.4764 10.2524C67.5863 10.2524 67.7589 10.3169 67.806 10.1071C68.9359 10.0748 70.0816 10.0748 71.2272 10.0748Z" fill="white"/>
<path d="M106.742 10.0748C106.758 10.2201 106.883 10.2039 106.978 10.2201C107.699 10.3169 108.421 10.3815 109.112 10.6236C109.583 10.785 110.069 10.9141 110.524 11.0916C110.917 11.253 111.309 11.4467 111.67 11.6565C112.172 11.9631 112.674 12.2698 113.13 12.6248C113.6 12.9799 114.04 13.3672 114.448 13.7869C114.84 14.2065 115.185 14.6584 115.499 15.1426C115.907 15.7559 116.284 16.3853 116.629 17.047C116.849 17.4666 116.974 17.9508 117.116 18.4027C117.304 19.0644 117.461 19.7423 117.618 20.404C117.665 20.5815 117.649 20.759 117.681 20.9366C117.791 21.8565 117.822 22.7926 117.791 23.7125C117.775 24.1967 117.728 24.6648 117.681 25.1328C117.634 25.6331 117.587 26.1334 117.492 26.6176C117.398 27.0856 117.241 27.5537 117.1 28.0056C117.022 28.2961 116.927 28.5705 116.818 28.8448C116.723 29.0869 116.614 29.329 116.504 29.555C116.221 30.0876 115.954 30.6202 115.609 31.1205C115.327 31.5562 114.981 31.9597 114.62 32.3309C114.228 32.7505 113.789 33.1217 113.349 33.493C112.753 33.9933 112.109 34.4129 111.403 34.7518C111.027 34.9293 110.65 35.1392 110.273 35.3167C110.038 35.4135 109.802 35.4942 109.567 35.5749C109.379 35.6395 109.19 35.6879 108.986 35.7363C108.955 35.7524 108.924 35.7524 108.892 35.7686C108.594 35.9945 108.217 35.93 107.888 36.0268C107.59 36.1237 107.26 36.1398 106.946 36.1721C106.381 36.2043 105.816 36.2205 105.236 36.2528C105.016 36.2689 104.78 36.285 104.561 36.3012C104.404 36.3012 104.247 36.3012 104.09 36.3012C103.619 36.3173 103.164 36.3335 102.693 36.3335C102.222 36.3335 101.752 36.3173 101.281 36.3012C100.857 36.285 100.433 36.2689 100.01 36.2366C99.8683 36.2205 99.8369 36.285 99.8369 36.4142C99.8369 37.7537 99.8369 39.0933 99.8369 40.4328C99.8369 41.6272 99.8369 42.8215 99.7899 44.0158C99.7742 44.4193 99.6172 44.8066 99.5544 45.1939C99.5074 45.549 99.3661 45.8556 99.1778 46.1462C99.0052 46.4367 98.7854 46.711 98.5971 46.9854C98.5814 47.0015 98.5657 47.0177 98.55 47.0338C98.4559 47.3082 98.1734 47.3727 97.9537 47.518C97.7497 47.6632 97.5143 47.7924 97.2789 47.9053C96.604 48.2443 95.8978 48.4379 95.1288 48.4057C94.4383 48.3895 93.7321 48.3895 93.0416 48.3572C92.8218 48.3411 92.6178 48.2604 92.3981 48.1958C91.5663 47.9538 90.8444 47.5503 90.2481 46.9047C89.8714 46.5012 89.6203 46.0009 89.4163 45.4844C89.0396 44.5806 89.1024 43.6284 89.1024 42.6923C89.0867 40.336 89.0867 37.9958 89.0867 35.6395C89.0867 34.4613 89.1024 33.2993 89.1024 32.1211C89.1024 30.5395 89.1024 28.9578 89.1024 27.3923C89.1024 27.1502 89.1338 27.1341 89.3535 27.1341C90.7032 27.1341 92.0528 27.1341 93.4025 27.1341C97.2945 27.1341 101.187 27.1341 105.094 27.1341C105.487 27.1341 105.895 27.1018 106.287 27.0534C106.444 27.0372 106.601 26.9565 106.758 26.8758C107.37 26.5692 107.841 26.1012 108.186 25.4717C108.625 24.697 108.688 23.8578 108.531 23.0185C108.453 22.6312 108.233 22.26 108.029 21.9049C107.762 21.453 107.401 21.098 106.946 20.8559C106.35 20.5331 105.722 20.3878 105.047 20.4201C104.278 20.4524 103.509 20.4363 102.74 20.4363C98.4873 20.4363 94.2343 20.4363 89.9813 20.4363C89.8086 20.4363 89.636 20.4685 89.4634 20.4685C89.2437 20.4685 89.2123 20.3878 89.2123 20.178C89.2123 19.5325 89.1966 18.8869 89.1809 18.2413C89.1652 17.5796 89.1495 16.9179 89.1495 16.2723C89.1495 15.6752 89.1495 15.078 89.2123 14.4809C89.2594 13.9483 89.3221 13.4157 89.4791 12.9153C89.6517 12.3666 89.9499 11.8663 90.3579 11.4305C90.7503 11.027 91.2054 10.7043 91.7076 10.4783C91.9744 10.3653 92.2569 10.3169 92.5237 10.2362C92.6021 10.2039 92.6492 10.1394 92.7277 10.091C97.373 10.0748 102.05 10.0748 106.742 10.0748Z" fill="white"/>
<path d="M148.754 17.1599C148.707 17.2083 148.629 17.2406 148.613 17.3052C148.472 17.6118 148.378 17.9346 148.221 18.2251C147.923 18.7739 147.577 19.3065 147.263 19.8391C146.855 20.5169 146.447 21.2109 146.024 21.8887C145.553 22.6634 145.082 23.4381 144.627 24.2128C144.297 24.7615 143.968 25.3103 143.638 25.8429C143.309 26.3755 142.995 26.9081 142.665 27.4407C142.179 28.2476 141.708 29.0707 141.221 29.8777C140.97 30.3134 140.719 30.7331 140.437 31.1688C140.091 31.7014 139.934 32.2824 139.934 32.9119C139.919 36.64 139.887 40.3521 139.856 44.0802C139.856 44.6128 139.683 45.1132 139.464 45.5812C139.307 45.904 139.15 46.2429 138.946 46.5334C138.6 47.0499 138.177 47.4856 137.627 47.7761C137.251 47.986 136.858 48.1635 136.466 48.3572C136.388 48.3894 136.293 48.3894 136.199 48.4217C136.121 48.454 136.042 48.5024 135.964 48.5508C135.917 48.567 135.87 48.5831 135.823 48.5831C134.991 48.5831 134.143 48.5831 133.312 48.5831C133.265 48.5831 133.202 48.5347 133.155 48.5024C133.123 48.4863 133.092 48.454 133.061 48.454C132.401 48.341 131.836 48.0182 131.303 47.6147C130.958 47.3404 130.628 47.0337 130.314 46.7271C129.922 46.3236 129.686 45.8071 129.498 45.2584C129.184 44.3385 129.137 43.3863 129.153 42.434C129.168 40.9654 129.153 39.4967 129.153 38.0119C129.153 36.5271 129.168 35.0261 129.168 33.5413C129.168 33.2024 129.153 32.8796 129.121 32.5407C129.059 32.0081 128.87 31.54 128.572 31.0881C128.337 30.7169 128.133 30.3457 127.897 29.9745C127.505 29.3451 127.113 28.7156 126.736 28.0701C126.281 27.3115 125.841 26.553 125.386 25.7944C124.884 24.9713 124.382 24.1644 123.88 23.3251C123.519 22.7118 123.158 22.0985 122.797 21.4853C122.31 20.6783 121.808 19.8875 121.306 19.0805C120.961 18.5156 120.647 17.9346 120.427 17.289C120.192 16.6273 120.129 15.9495 120.129 15.2716C120.129 14.8843 120.286 14.4808 120.427 14.1096C120.71 13.3188 121.18 12.6409 121.745 12.0276C122.232 11.5112 122.781 11.0916 123.393 10.8011C124.115 10.446 124.9 10.2685 125.716 10.2523C126.218 10.2523 126.736 10.2685 127.207 10.4137C127.63 10.5428 128.039 10.7526 128.415 10.9947C129.027 11.3821 129.529 11.9147 129.906 12.5441C130.408 13.3833 130.895 14.2387 131.397 15.0941C131.648 15.5137 131.883 15.9333 132.135 16.3691C132.496 17.0147 132.856 17.6764 133.217 18.322C133.578 18.9353 133.939 19.5485 134.3 20.1618C134.316 20.1941 134.332 20.2425 134.347 20.2748C134.394 20.3232 134.442 20.4039 134.504 20.4201C134.536 20.4362 134.614 20.3394 134.646 20.2909C134.881 19.9036 135.116 19.5163 135.336 19.1128C135.697 18.4834 136.058 17.8539 136.403 17.2245C136.701 16.708 136.984 16.1754 137.282 15.659C137.816 14.739 138.334 13.8191 138.867 12.8992C139.338 12.1083 139.919 11.4466 140.703 10.9624C141.645 10.3653 142.665 10.1555 143.764 10.3007C144.187 10.3653 144.611 10.4299 145.003 10.5751C145.412 10.7204 145.788 10.9302 146.149 11.1723C146.573 11.4628 146.965 11.8017 147.326 12.1729C147.734 12.5764 148.064 13.0606 148.299 13.5931C148.409 13.8191 148.487 14.0773 148.582 14.3033C148.597 14.3517 148.676 14.3678 148.723 14.4001C148.754 15.2878 148.754 16.2239 148.754 17.1599Z" fill="white"/>
<path d="M51.8141 10.0748C51.7513 10.1878 51.7827 10.2685 51.9082 10.3169C51.9867 10.3331 52.0495 10.3815 52.1279 10.3815C52.3634 10.3976 52.5831 10.4138 52.7243 10.6397L52.74 10.6558C53.101 10.6558 53.305 10.9464 53.5718 11.1077C53.7601 11.2046 53.9641 11.366 54.074 11.5919C54.0897 11.6242 54.1054 11.6726 54.1211 11.6726C54.3878 11.7049 54.4506 12.0115 54.6389 12.1407C54.7174 12.2052 54.7488 12.3505 54.7959 12.4634C54.843 12.5441 54.9057 12.6248 54.9528 12.7055C54.9842 12.7378 55.0156 12.7701 55.0313 12.8185C55.3138 13.3511 55.455 13.9321 55.6433 14.5131C55.6904 14.6423 55.6904 14.8036 55.6904 14.9489C55.6904 15.2233 55.6747 15.5138 55.6904 15.7881C55.7218 16.24 55.612 16.6758 55.455 17.0954C55.4236 17.2084 55.4079 17.3214 55.3766 17.4344C55.2353 17.8217 55.0627 18.1929 54.8116 18.5318C54.6076 18.7901 54.4663 19.0806 54.2466 19.3227C54.074 19.5163 53.8386 19.6454 53.6502 19.823C53.4776 20.0005 53.2422 20.0651 53.0853 20.2265C52.9126 20.3878 52.7714 20.4685 52.5517 20.4847C52.4889 20.4847 52.4104 20.5331 52.3947 20.5815C52.332 20.7429 52.1907 20.7429 52.0652 20.759C51.9239 20.7752 51.767 20.7752 51.6257 20.8075C51.5316 20.8236 51.4374 20.8236 51.359 20.872C50.9038 21.1948 50.4016 21.0011 49.9308 21.0334C49.8367 21.0334 49.7425 21.0173 49.6483 21.0011C49.617 21.0011 49.5542 21.0011 49.5385 20.985C49.3659 20.7429 49.1147 20.8236 48.8793 20.7913C48.7224 20.7591 48.5655 20.7429 48.4556 20.5815C48.4242 20.5331 48.3301 20.517 48.2673 20.4847C48.2045 20.4685 48.1104 20.4685 48.0633 20.4363C47.8122 20.2749 47.5611 20.0973 47.3257 19.9359C47.31 19.9359 47.31 19.9037 47.31 19.9037C47.0903 19.8068 46.9647 19.5809 46.7764 19.484C46.5567 19.3872 46.4939 19.1774 46.3527 19.0321C46.1957 18.8869 46.1016 18.6771 45.9917 18.4995C45.8661 18.2736 45.6621 18.0961 45.6307 17.8217C45.615 17.6926 45.5209 17.5796 45.4738 17.4505C45.411 17.2568 45.3639 17.0631 45.3169 16.8533C45.2698 16.6112 45.1913 16.353 45.1756 16.0948C45.1442 15.6913 45.1285 15.2878 45.1599 14.9005C45.1756 14.5938 45.2698 14.3033 45.3483 13.9967C45.3953 13.8191 45.4895 13.6416 45.568 13.4641C45.6151 13.3672 45.6464 13.2543 45.6621 13.1413C45.6935 12.996 45.6935 12.8508 45.8661 12.7701C45.9132 12.754 45.9446 12.6571 45.976 12.5926C46.0074 12.5441 46.0388 12.4796 46.0859 12.4312C46.2114 12.2698 46.3213 12.0922 46.4782 11.947C46.6508 11.7695 46.7607 11.4951 47.0275 11.4144C47.0275 11.4144 47.0432 11.4144 47.0432 11.3982C47.2629 11.2207 47.4669 11.0432 47.6866 10.8657C47.7651 10.8011 47.8749 10.785 47.9691 10.7365C48.0476 10.7043 48.1574 10.6881 48.2045 10.6236C48.3144 10.446 48.487 10.4299 48.6596 10.4138C48.7695 10.3976 48.8793 10.3653 48.9892 10.3492C49.1304 10.3331 49.1932 10.2524 49.1775 10.1071C50.0564 10.0748 50.9352 10.0748 51.8141 10.0748Z" fill="white"/>
<path d="M55.7061 35.252C55.7061 38.0441 55.7061 40.8201 55.7061 43.6122C55.7061 44.0479 55.5963 44.4514 55.455 44.871C55.2824 45.3875 55.0627 45.8555 54.7645 46.3074C54.2152 47.1305 53.509 47.7599 52.6144 48.1473C52.3633 48.2603 52.0495 48.2925 51.8141 48.4378C51.3903 48.696 50.9352 48.5346 50.5115 48.5669C50.1505 48.5992 49.7739 48.583 49.3972 48.5669C49.3344 48.5669 49.2717 48.5185 49.2089 48.4862C49.1618 48.4701 49.1304 48.4378 49.099 48.4217C48.3928 48.2925 47.8121 47.9213 47.2315 47.5017C46.6194 47.066 46.18 46.4688 45.8347 45.8232C45.5679 45.3229 45.3796 44.8065 45.2855 44.2254C45.1599 43.4023 45.1599 42.5792 45.1599 41.7561C45.1442 36.9143 45.1442 32.0887 45.1599 27.2469C45.1599 26.3431 45.411 25.4877 45.8504 24.6808C46.2899 23.9061 46.8391 23.2605 47.5767 22.7925C48.1731 22.4051 48.8009 22.0985 49.5228 22.0178C50.0093 21.9532 50.4958 21.9209 50.9823 21.9694C51.7199 22.0339 52.3947 22.2437 53.0225 22.6472C53.3991 22.8893 53.7758 23.1637 54.121 23.4542C54.3564 23.664 54.5448 23.9222 54.7174 24.1966C54.9371 24.5516 55.1725 24.9067 55.3295 25.2941C55.5178 25.7782 55.7061 26.2947 55.7061 26.8273C55.7061 29.6517 55.7061 32.4438 55.7061 35.252Z" fill="white"/>
<path d="M17.0995 48.567L26.7825 38.609C26.9708 38.4153 27.2376 38.3024 27.5201 38.3024H37.5327C38.0663 38.3024 38.4744 38.7866 38.3959 39.3353L37.0933 47.9537C37.0462 48.3088 36.7481 48.567 36.3871 48.567H17.0995Z" fill="#F57600"/>
</g>
<defs>
<clipPath id="clip0">
<rect width="159" height="57" fill="white" transform="translate(0.0137329 0.925781)"/>
</clipPath>
</defs>
</svg>
