<svg width="39" height="22" viewBox="0 0 39 22" fill="none" xmlns="http://www.w3.org/2000/svg">
<path d="M21.619 11.1631C21.619 17.1157 16.7803 21.9425 10.8086 21.9425C9.39111 21.9443 7.98717 21.667 6.6769 21.1263C5.36662 20.5856 4.17567 19.7922 3.17205 18.7912C2.16843 17.7903 1.37179 16.6014 0.827607 15.2926C0.28343 13.9838 0.00237444 12.5806 0.000488281 11.1631C0.000488281 5.20815 4.83921 0.383802 10.8086 0.383802C12.2262 0.381599 13.6304 0.658684 14.941 1.19923C16.2515 1.73978 17.4427 2.5332 18.4466 3.53419C19.4505 4.53517 20.2474 5.72411 20.7917 7.0331C21.336 8.34208 21.6171 9.74548 21.619 11.1631V11.1631ZM33.4763 11.1631C33.4763 16.7684 31.0569 21.3101 28.0723 21.3101C25.0876 21.3101 22.6682 16.766 22.6682 11.1631C22.6682 5.55788 25.0876 1.01619 28.0723 1.01619C31.0569 1.01619 33.4763 5.56027 33.4763 11.1631ZM38.327 11.1631C38.327 16.1839 37.4766 20.2537 36.425 20.2537C35.3759 20.2537 34.5255 16.1815 34.5255 11.1631C34.5255 6.14236 35.3759 2.07256 36.4274 2.07256C37.4766 2.07256 38.327 6.14236 38.327 11.1631Z" fill="white"/>
</svg>
