<svg width="308" height="174" viewBox="0 0 238 174" fill="none" xmlns="http://www.w3.org/2000/svg">
<path d="M134.71 128.538C134.87 130.64 135.66 132.816 137.324 134.056C138.987 135.297 141.634 135.273 142.905 133.607C143.332 132.981 143.646 132.283 143.832 131.544C144.902 128.081 145.662 124.291 144.489 120.862C141.842 120.686 138.774 119.411 136.787 121.65C135.183 123.474 134.526 126.107 134.71 128.538Z" fill="#4D8270"/>
<path d="M203.015 109.495C203.091 110.648 203.471 111.841 204.271 112.522C205.071 113.202 206.343 113.189 206.954 112.275C207.159 111.932 207.31 111.549 207.4 111.144C207.914 109.244 208.28 107.166 207.716 105.285C206.443 105.189 204.968 104.49 204.013 105.718C203.242 106.718 202.926 108.162 203.015 109.495Z" fill="#4D8270"/>
<path d="M54.0146 109.495C54.0911 110.648 54.4712 111.841 55.271 112.522C56.0708 113.202 57.3433 113.189 57.9542 112.275C58.1594 111.932 58.3103 111.549 58.3998 111.144C58.9145 109.244 59.2798 107.166 58.7158 105.285C57.4433 105.189 55.9684 104.49 55.0131 105.718C54.2417 106.718 53.9257 108.162 54.0146 109.495Z" fill="#4D8270"/>
<path d="M146.907 107.133C146.537 110.166 145.907 113.185 145.972 116.238C145.996 117.416 146.126 118.584 146.128 119.768C146.133 122.841 145.294 125.861 143.696 128.52C143.528 128.833 143.303 129.113 143.031 129.349C142.391 129.85 141.426 129.808 140.707 129.425C140.005 129.003 139.434 128.406 139.056 127.696C137.042 124.369 136.986 120.326 136.188 116.553C135.577 113.667 134.507 110.869 134.121 107.949C133.869 106.07 133.907 104.153 133.507 102.297C133.386 101.737 133.045 100.894 132.821 100.068C132.615 99.3302 132.502 98.6054 132.713 98.1074C133.142 97.088 134.55 97.4843 135.467 97.5469C138.693 97.7776 141.933 97.7698 145.158 97.5234C145.477 97.4999 145.839 97.4869 146.064 97.7059C146.161 97.8165 146.235 97.9451 146.28 98.0839C146.537 98.7618 146.733 99.4596 146.866 100.17C147.312 102.44 147.188 104.821 146.907 107.133Z" fill="#FABDBD"/>
<path d="M208.861 98.4137C208.657 100.103 208.311 101.786 208.347 103.487C208.36 104.144 208.432 104.795 208.433 105.455C208.436 107.167 207.975 108.85 207.097 110.332C207.004 110.506 206.881 110.663 206.731 110.794C206.379 111.073 205.849 111.05 205.454 110.836C205.068 110.601 204.755 110.268 204.547 109.873C203.441 108.019 203.41 105.766 202.972 103.663C202.636 102.055 202.048 100.496 201.836 98.8685C201.697 97.8209 201.718 96.753 201.498 95.7185C201.432 95.4061 201.245 94.9369 201.121 94.4763C201.008 94.0651 200.946 93.6612 201.062 93.3837C201.298 92.8156 202.072 93.0364 202.575 93.0713C204.348 93.1999 206.128 93.1955 207.9 93.0582C208.075 93.0451 208.274 93.0379 208.398 93.1599C208.451 93.2216 208.492 93.2932 208.516 93.3706C208.657 93.7483 208.765 94.1372 208.839 94.5329C209.084 95.7984 209.015 97.125 208.861 98.4137Z" fill="#FABDBD"/>
<path d="M59.8609 98.4137C59.6574 100.103 59.3114 101.786 59.3471 103.487C59.3604 104.144 59.4317 104.795 59.4332 105.455C59.4358 107.167 58.9746 108.85 58.0967 110.332C58.0043 110.506 57.8805 110.663 57.7314 110.794C57.3795 111.073 56.8494 111.05 56.4544 110.836C56.0684 110.601 55.7549 110.268 55.5471 109.873C54.4408 108.019 54.4096 105.766 53.9715 103.663C53.6359 102.055 53.0479 100.496 52.8355 98.8685C52.6974 97.8209 52.7182 96.753 52.4984 95.7185C52.4316 95.4061 52.2445 94.9369 52.1213 94.4763C52.0084 94.0651 51.946 93.6612 52.0619 93.3837C52.298 92.8156 53.0716 93.0364 53.575 93.0713C55.3478 93.1999 57.128 93.1955 58.9001 93.0582C59.0753 93.0451 59.2743 93.0379 59.3975 93.1599C59.4513 93.2216 59.4917 93.2932 59.5163 93.3706C59.6574 93.7483 59.7652 94.1372 59.8386 94.5329C60.0836 95.7984 60.0153 97.125 59.8609 98.4137Z" fill="#FABDBD"/>
<path d="M156.873 123.034C155.277 126.214 155.543 130.719 155.543 130.719C155.809 141.32 151.554 163.581 151.554 163.581H147.832C147.832 163.581 147.3 138.935 147.832 136.815C148.363 134.695 147.566 127.274 146.768 116.939C146.175 109.254 147.789 102.289 148.656 99.2336C148.954 98.1736 149.161 97.5932 149.161 97.5932C149.161 97.5932 155.277 88.5829 158.734 92.823C159.532 93.8089 159.955 95.7991 160.101 98.3114C160.574 106.601 158.096 120.593 156.873 123.034Z" fill="#FABDBD"/>
<path d="M215.055 107.004C214.111 108.73 214.268 111.173 214.268 111.173C214.425 116.924 211.908 129 211.908 129H209.705C209.705 129 209.39 115.63 209.705 114.48C210.02 113.33 209.548 109.305 209.076 103.698C208.725 99.5287 209.68 95.7507 210.193 94.0931C210.369 93.518 210.492 93.2032 210.492 93.2032C210.492 93.2032 214.111 88.3153 216.156 90.6155C216.628 91.1503 216.878 92.2299 216.965 93.5928C217.245 98.0897 215.779 105.68 215.055 107.004Z" fill="#FABDBD"/>
<path d="M66.0547 107.004C65.1107 108.73 65.268 111.173 65.268 111.173C65.4254 116.924 62.9078 129 62.9078 129H60.705C60.705 129 60.3903 115.63 60.705 114.48C61.0197 113.33 60.5477 109.305 60.0756 103.698C59.7248 99.5287 60.6798 95.7507 61.1928 94.0931C61.369 93.518 61.4917 93.2032 61.4917 93.2032C61.4917 93.2032 65.1107 88.3153 67.1562 90.6155C67.6282 91.1503 67.8784 92.2299 67.9649 93.5928C68.245 98.0897 66.7785 105.68 66.0547 107.004Z" fill="#FABDBD"/>
<path opacity="0.1" d="M160.101 98.3096C159.955 95.7973 159.54 93.8043 158.74 92.8211C157.973 91.8777 157.073 91.5914 156.141 91.716C156.863 91.836 157.51 92.2322 157.946 92.8211C158.74 93.807 159.161 95.7973 159.307 98.3096C159.778 106.599 157.311 120.592 156.093 123.033C154.505 126.213 154.77 130.719 154.77 130.719C155.035 141.319 150.8 163.581 150.8 163.581H151.594C151.594 163.581 155.829 141.319 155.564 130.719C155.564 130.719 155.299 126.213 156.888 123.033C158.105 120.592 160.572 106.599 160.101 98.3096Z" fill="#4D8270"/>
<path opacity="0.1" d="M216.962 93.5918C216.869 92.2289 216.602 91.1478 216.09 90.6144C215.598 90.1026 215.021 89.9474 214.424 90.0149C214.887 90.08 215.302 90.295 215.581 90.6144C216.09 91.1492 216.36 92.2289 216.453 93.5918C216.755 98.0888 215.174 105.68 214.393 107.004C213.375 108.729 213.545 111.173 213.545 111.173C213.715 116.924 211 129 211 129H211.509C211.509 129 214.224 116.924 214.054 111.173C214.054 111.173 213.884 108.729 214.902 107.004C215.683 105.68 217.264 98.0888 216.962 93.5918Z" fill="#4D8270"/>
<path opacity="0.1" d="M67.9622 93.5918C67.8688 92.2289 67.6025 91.1478 67.0901 90.6144C66.598 90.1026 66.0211 89.9474 65.4239 90.0149C65.8868 90.08 66.3017 90.295 66.5811 90.6144C67.0901 91.1492 67.3598 92.2289 67.4532 93.5918C67.7552 98.0888 66.1738 105.68 65.3934 107.004C64.3754 108.729 64.545 111.173 64.545 111.173C64.7147 116.924 62 129 62 129H62.509C62.509 129 65.2237 116.924 65.054 111.173C65.054 111.173 64.8844 108.729 65.9024 107.004C66.6829 105.68 68.2642 98.0888 67.9622 93.5918Z" fill="#4D8270"/>
<path d="M146.023 162.899C145.718 163.134 145.455 163.416 145.243 163.734C144.755 164.639 145.448 165.72 146.189 166.439C146.93 167.159 147.824 167.93 147.824 168.955C147.824 169.779 147.189 170.485 146.478 170.924C146.096 171.16 145.617 171.459 145.696 171.903C145.723 172.016 145.772 172.122 145.84 172.217C146.451 173.134 147.533 173.672 148.628 173.876C149.724 174.079 150.855 173.991 151.97 173.902C152.137 173.908 152.3 173.853 152.428 173.747C152.508 173.64 152.552 173.511 152.55 173.378C152.605 172.811 152.569 172.211 152.823 171.7C153.177 171.002 153.992 170.646 154.458 170.02C155.112 169.163 155.022 167.973 154.774 166.932C154.229 164.665 153.016 162.08 151.196 160.51C149.086 158.706 147.432 161.596 146.023 162.899Z" fill="#4D8270"/>
<path d="M208.572 128.687C208.388 128.82 208.228 128.981 208.099 129.162C207.803 129.676 208.223 130.291 208.673 130.7C209.124 131.11 209.667 131.548 209.667 132.131C209.667 132.599 209.281 133.001 208.849 133.251C208.617 133.385 208.326 133.555 208.374 133.808C208.391 133.872 208.42 133.932 208.462 133.986C208.832 134.508 209.489 134.814 210.155 134.93C210.82 135.045 211.507 134.995 212.184 134.945C212.285 134.948 212.385 134.917 212.462 134.856C212.511 134.796 212.537 134.722 212.537 134.646C212.57 134.324 212.548 133.983 212.702 133.692C212.917 133.295 213.412 133.093 213.695 132.736C214.092 132.249 214.038 131.572 213.887 130.98C213.556 129.691 212.82 128.221 211.714 127.328C210.433 126.302 209.428 127.946 208.572 128.687Z" fill="#4D8270"/>
<path d="M59.5724 128.687C59.3875 128.82 59.2276 128.981 59.0991 129.162C58.8028 129.676 59.2232 130.291 59.6734 130.7C60.1236 131.11 60.6665 131.548 60.6665 132.131C60.6665 132.599 60.2809 133.001 59.8489 133.251C59.6171 133.385 59.3258 133.555 59.3738 133.808C59.3906 133.872 59.4204 133.932 59.4615 133.986C59.8323 134.508 60.4894 134.814 61.1548 134.93C61.8202 135.045 62.5071 134.995 63.184 134.945C63.2854 134.948 63.3846 134.917 63.4621 134.856C63.5112 134.796 63.5373 134.722 63.5366 134.646C63.5697 134.324 63.5482 133.983 63.7021 133.692C63.9173 133.295 64.4122 133.093 64.6952 132.736C65.0925 132.249 65.0379 131.572 64.8872 130.98C64.5562 129.691 63.8196 128.221 62.714 127.328C61.4329 126.302 60.4282 127.946 59.5724 128.687Z" fill="#4D8270"/>
<path d="M154.028 29.3262C155.505 27.116 155.121 24.026 153.612 21.8264C152.103 19.6268 149.679 18.2434 147.177 17.3503C143.804 16.1472 140.085 15.7364 136.62 16.6401C133.862 17.3583 131.384 18.8609 128.784 20.0216C124.185 22.0759 119.185 23.072 114.15 22.9368C108.562 22.7804 102.439 21.3467 97.7509 24.405C89.1686 29.9941 92.9859 45.2058 84.8669 51.4362C82.6776 53.1164 79.9219 53.8505 77.4865 55.1464C75.051 56.4423 72.7426 58.6976 72.8009 61.459C72.8274 62.7841 73.4097 64.0482 74.1245 65.1692C77.1688 70.0004 82.8603 72.9897 88.5597 72.9341C94.2592 72.8784 99.821 69.844 103.106 65.1745C103.929 64.0058 104.655 62.7046 105.849 61.9254C108.231 60.3619 111.371 61.4564 114.214 61.6896C120.543 62.2064 126.876 57.4494 128.136 51.2083C128.665 48.545 128.572 45.3622 130.714 43.6899C132.443 42.341 134.875 42.6299 137.067 42.3993C141.075 41.9832 144.239 39.4842 146.415 36.2192C147.413 34.7219 147.529 32.9331 148.89 31.7538C150.356 30.4578 152.625 31.4145 154.028 29.3262Z" fill="#555555"/>
<path d="M170.522 55.193C169.695 53.9864 169.91 52.2995 170.754 51.0987C171.599 49.8978 172.957 49.1426 174.357 48.6551C176.246 47.9982 178.328 47.774 180.268 48.2673C181.813 48.6594 183.2 49.4797 184.655 50.1134C187.23 51.2349 190.03 51.7787 192.849 51.7049C195.977 51.6195 199.405 50.8368 202.03 52.5064C206.835 55.5576 204.698 63.8621 209.244 67.2634C210.47 68.1807 212.012 68.5814 213.376 69.2889C214.74 69.9963 216.032 71.2275 215.999 72.7351C215.985 73.4585 215.659 74.1486 215.258 74.7606C213.554 77.398 210.367 79.03 207.176 78.9996C203.985 78.9692 200.871 77.3127 199.032 74.7634C198.571 74.1254 198.165 73.4151 197.496 72.9897C196.163 72.1361 194.405 72.7336 192.813 72.8609C189.269 73.1431 185.724 70.5461 185.018 67.139C184.722 65.685 184.774 63.9474 183.575 63.0345C182.607 62.2981 181.245 62.4558 180.018 62.3299C177.774 62.1028 176.003 60.7385 174.784 58.9561C174.226 58.1386 174.16 57.1621 173.399 56.5183C172.577 55.8108 171.307 56.3331 170.522 55.193Z" fill="#555555"/>
<path d="M51.2495 55.193C50.854 53.9864 50.9568 52.2995 51.3608 51.0987C51.7648 49.8978 52.4141 49.1426 53.084 48.6551C53.9871 47.9982 54.983 47.774 55.9109 48.2673C56.6495 48.6594 57.313 49.4797 58.0091 50.1134C59.2405 51.2349 60.5795 51.7787 61.9276 51.7049C63.4239 51.6195 65.0635 50.8368 66.3188 52.5064C68.6169 55.5576 67.5948 63.8621 69.7688 67.2634C70.355 68.1807 71.0929 68.5814 71.7451 69.2889C72.3972 69.9963 73.0153 71.2275 72.9997 72.7351C72.9926 73.4585 72.8367 74.1486 72.6453 74.7606C71.8301 77.398 70.3061 79.03 68.78 78.9996C67.2538 78.9692 65.7645 77.3127 64.8849 74.7634C64.6644 74.1254 64.4702 73.4151 64.1505 72.9897C63.5125 72.1361 62.6718 72.7336 61.9105 72.8609C60.2157 73.1431 58.5201 70.5461 58.1827 67.139C58.041 65.685 58.0658 63.9474 57.4923 63.0345C57.0294 62.2981 56.378 62.4558 55.7911 62.3299C54.7179 62.1028 53.8708 60.7385 53.2881 58.9561C53.0209 58.1386 52.9897 57.1621 52.6254 56.5183C52.2327 55.8108 51.6252 56.3331 51.2495 55.193Z" fill="#555555"/>
<g opacity="0.1">
<path opacity="0.1" d="M109.02 23.4285C111.338 23.4922 113.656 23.3147 115.937 22.8989C115.308 22.9174 114.673 22.9174 114.042 22.8989C109.662 22.7771 104.956 21.8716 100.87 22.9625C103.565 22.9889 106.354 23.3543 109.02 23.4285Z" fill="#4D8270"/>
<path opacity="0.1" d="M100.727 62.3976C99.5351 63.1761 98.811 64.4761 97.9891 65.6438C95.4627 69.1964 91.7704 71.7465 87.5576 72.8483C87.8668 72.8615 88.176 72.8695 88.4879 72.8668C94.1833 72.8112 99.7307 69.7796 103.011 65.1142C103.832 63.9466 104.557 62.6465 105.749 61.8681L105.955 61.741C104.089 61.4842 102.257 61.3941 100.727 62.3976Z" fill="#4D8270"/>
<path opacity="0.1" d="M153.436 21.7998C151.933 19.6128 149.509 18.2201 147.012 17.3278C143.645 16.1257 139.931 15.7153 136.472 16.6182C136.393 16.6367 136.316 16.6605 136.239 16.6817C138.203 16.7914 140.14 17.1875 141.99 17.8573C144.488 18.7496 146.911 20.1423 148.415 22.3294C149.919 24.5164 150.305 27.6249 148.83 29.8225C147.429 31.9169 145.164 30.961 143.682 32.2505C142.323 33.4287 142.207 35.2159 141.211 36.7119C139.342 39.5106 136.741 41.7426 133.504 42.5899C134.617 42.4575 135.79 42.4734 136.9 42.3569C140.901 41.9412 144.06 39.4444 146.232 36.1824C147.228 34.6864 147.345 32.8992 148.703 31.7209C150.186 30.4315 152.451 31.3873 153.851 29.2929C155.329 27.0847 154.946 23.9868 153.436 21.7998Z" fill="#4D8270"/>
<path opacity="0.1" d="M131.881 42.8863C129.706 43.114 127.277 42.828 125.538 44.1757C123.4 45.8464 123.503 49.0264 122.964 51.6874C122.037 56.3395 118.268 60.1761 113.793 61.6032L114.108 61.6323C120.427 62.1486 126.749 57.3959 128.007 51.1605C128.535 48.4995 128.443 45.3195 130.581 43.6488C131.072 43.2809 131.629 43.0112 132.222 42.8545C132.103 42.8571 131.995 42.8757 131.881 42.8863Z" fill="#4D8270"/>
</g>
<g opacity="0.1">
<path opacity="0.1" d="M188.423 51.9255C189.701 51.9607 190.98 51.8627 192.239 51.6333C191.892 51.6436 191.542 51.6436 191.193 51.6333C188.777 51.5661 186.18 51.0665 183.926 51.6684C185.413 51.683 186.951 51.8846 188.423 51.9255Z" fill="#4D8270"/>
<path opacity="0.1" d="M183.847 73.4256C183.189 73.8551 182.79 74.5724 182.336 75.2166C180.942 77.1767 178.905 78.5836 176.581 79.1915C176.752 79.1988 176.922 79.2032 177.094 79.2018C180.237 79.1711 183.297 77.4984 185.107 74.9244C185.56 74.2802 185.96 73.563 186.617 73.1335L186.731 73.0634C185.702 72.9217 184.691 72.872 183.847 73.4256Z" fill="#4D8270"/>
<path opacity="0.1" d="M212.928 51.0272C212.098 49.8206 210.761 49.0522 209.383 48.5599C207.526 47.8967 205.477 47.6702 203.568 48.1684C203.524 48.1786 203.482 48.1917 203.44 48.2034C204.523 48.264 205.592 48.4825 206.613 48.852C207.991 49.3443 209.328 50.1127 210.157 51.3194C210.987 52.526 211.2 54.241 210.386 55.4535C209.614 56.609 208.364 56.0817 207.546 56.7931C206.796 57.4432 206.732 58.4292 206.183 59.2546C205.152 60.7987 203.717 62.0302 201.931 62.4976C202.545 62.4246 203.192 62.4333 203.804 62.3691C206.012 62.1397 207.754 60.7622 208.953 58.9624C209.503 58.1371 209.567 57.151 210.316 56.5009C211.134 55.7895 212.384 56.3169 213.157 55.1614C213.972 53.943 213.761 52.2339 212.928 51.0272Z" fill="#4D8270"/>
<path opacity="0.1" d="M201.036 62.6611C199.836 62.7867 198.496 62.6289 197.536 63.3725C196.356 64.2943 196.413 66.0487 196.116 67.5169C195.604 70.0835 193.525 72.2003 191.056 72.9877L191.23 73.0037C194.716 73.2886 198.204 70.6664 198.898 67.2262C199.19 65.758 199.139 64.0036 200.318 63.0818C200.589 62.8788 200.897 62.73 201.224 62.6436C201.158 62.645 201.098 62.6552 201.036 62.6611Z" fill="#4D8270"/>
</g>
<g opacity="0.1">
<path opacity="0.1" d="M39.4227 51.9255C40.7013 51.9607 41.9802 51.8627 43.2386 51.6333C42.8916 51.6436 42.5416 51.6436 42.1932 51.6333C39.777 51.5661 37.1801 51.0665 34.9258 51.6684C36.4131 51.683 37.9514 51.8846 39.4227 51.9255Z" fill="#4D8270"/>
<path opacity="0.1" d="M34.847 73.4256C34.1893 73.8551 33.7898 74.5724 33.3363 75.2166C31.9425 77.1767 29.9054 78.5836 27.5811 79.1915C27.7517 79.1988 27.9223 79.2032 28.0943 79.2018C31.2366 79.1711 34.2972 77.4984 36.1068 74.9244C36.5603 74.2802 36.9598 73.563 37.6174 73.1335L37.7312 73.0634C36.7017 72.9217 35.6912 72.872 34.847 73.4256Z" fill="#4D8270"/>
<path opacity="0.1" d="M63.928 51.0272C63.0983 49.8206 61.7612 49.0522 60.3832 48.5599C58.5255 47.8967 56.4769 47.6702 54.5682 48.1684C54.5244 48.1786 54.4821 48.1917 54.4398 48.2034C55.5233 48.264 56.5922 48.4825 57.6127 48.852C58.9907 49.3443 60.3278 50.1127 61.1575 51.3194C61.9872 52.526 62.2001 54.241 61.3864 55.4535C60.6136 56.609 59.364 56.0817 58.546 56.7931C57.7965 57.4432 57.7323 58.4292 57.1826 59.2546C56.1517 60.7987 54.7169 62.0302 52.9307 62.4976C53.5445 62.4246 54.192 62.4333 54.8044 62.3691C57.012 62.1397 58.7545 60.7622 59.9531 58.9624C60.5028 58.1371 60.5669 57.151 61.3164 56.5009C62.1344 55.7895 63.3841 56.3169 64.1569 55.1614C64.972 53.943 64.7605 52.2339 63.928 51.0272Z" fill="#4D8270"/>
<path opacity="0.1" d="M52.0357 62.6611C50.8356 62.7867 49.4956 62.6289 48.5361 63.3725C47.3565 64.2943 47.4134 66.0487 47.1159 67.5169C46.6041 70.0835 44.5248 72.2003 42.0562 72.9877L42.2297 73.0037C45.7161 73.2886 49.204 70.6664 49.898 67.2262C50.1897 65.758 50.1386 64.0036 51.3183 63.0818C51.5892 62.8788 51.8966 62.73 52.2238 62.6436C52.1581 62.645 52.0984 62.6552 52.0357 62.6611Z" fill="#4D8270"/>
</g>
<path d="M195.659 19.619C195.659 19.619 189.309 32.3334 187.192 37.1014C185.075 41.8693 165.759 49.0212 163.113 49.2861C162.403 49.3835 161.742 49.7023 161.224 50.1973C159.729 51.5217 158.879 53.7891 158.879 53.7891C158.879 53.7891 159.938 60.941 158.615 72.8608C158.588 73.0912 158.565 73.3217 158.543 73.5442C157.39 84.8865 159.806 87.5619 159.806 87.5619C159.806 87.5619 134.139 97.3626 134.933 84.6481C135.181 80.6457 135.144 77.7214 134.898 75.2765C134.629 72.7737 134.12 70.3024 133.379 67.8968C132.752 65.7009 132.004 63.2931 131.228 60.0139C130.855 58.3777 130.363 56.7709 129.757 55.2062C129.739 55.1585 129.72 55.1109 129.704 55.0658C128.381 51.7786 127.058 50.7164 126.301 50.3721C125.587 50.0609 124.906 49.6775 124.269 49.2278C121.824 47.461 116.577 43.501 111.904 38.8231C105.554 32.4659 99.2032 17.3675 99.2032 17.3675C99.2032 17.3675 97.3509 8.62627 101.585 1.47439C105.818 -5.67749 103.966 15.5133 103.966 15.5133C103.966 15.5133 111.64 25.8438 113.492 30.6117C114.444 33.0645 115.958 34.3201 117.196 34.9717C119.242 36.0378 121.201 37.2636 123.055 38.6377C124.307 39.5854 125.624 40.4457 126.995 41.2124C129.953 42.8017 133.496 44.5949 136.449 45.0664C136.91 45.1427 137.376 45.1825 137.843 45.1856C138.065 45.1927 138.285 45.1486 138.487 45.0567C138.689 44.9649 138.867 44.8277 139.008 44.6559C139.801 43.7208 139.783 41.7077 139.6 40.0522C139.503 39.1945 139.358 38.3429 139.166 37.5013C139.166 37.5013 147.766 32.0712 147.501 38.6933C147.46 39.4251 147.528 40.1589 147.703 40.8707C147.843 41.524 148.155 42.1282 148.605 42.6215C149.056 43.1149 149.629 43.4796 150.267 43.6784C151.299 43.9816 152.392 44.0172 153.442 43.7818C153.769 43.7258 154.085 43.6175 154.378 43.4612C155.172 42.9315 163.11 40.5475 165.492 40.2826C167.873 40.0177 179.781 34.1903 179.781 34.1903L192.746 16.1781C192.746 16.1781 192.482 5.58275 197.774 1.3446C203.066 -2.89355 195.659 19.619 195.659 19.619Z" fill="#FABDBD"/>
<path d="M230.808 80.7598C230.808 80.7598 227.346 63.733 226.192 66.3479C225.038 68.9628 219.506 65.8852 218.064 66.0304C217.677 66.0839 217.316 66.2587 217.034 66.5302C216.219 67.2566 215.756 68.5001 215.756 68.5001C215.756 68.5001 216.333 72.4225 215.611 78.9598C215.597 79.0862 215.584 79.2125 215.572 79.3346C214.943 85.5552 216.26 87.0224 216.26 87.0224C216.26 87.0224 202.267 92.3975 202.7 85.4244C202.835 83.2293 202.815 81.6255 202.681 80.2847C202.534 78.912 202.257 77.5567 201.853 76.2373C201.511 75.033 201.103 73.7125 200.68 71.914C200.477 71.0167 200.209 70.1354 199.878 69.2773C199.868 69.2511 199.858 69.225 199.849 69.2003C199.128 67.3975 198.406 66.8149 197.994 66.6261C197.604 66.4554 198.233 60.7534 197.886 61C196.553 61.969 193.692 64.1408 191.145 66.7063C187.682 70.1929 184.22 78.4735 184.22 78.4735C184.22 78.4735 183.21 83.2675 185.518 87.1899C187.826 91.1122 186.817 79.4904 186.817 79.4904C186.817 79.4904 191 73.8247 192.01 71.2098C192.529 69.8646 193.355 69.176 194.03 68.8186C195.145 68.2339 196.213 67.5616 197.224 66.808C197.907 66.2883 197.624 61.182 198.372 61.6025C199.985 62.4742 201.916 63.4577 203.526 63.7162C203.778 63.7581 204.032 63.7799 204.287 63.7816C204.407 63.7855 204.528 63.7613 204.638 63.7109C204.748 63.6605 204.845 63.5853 204.921 63.4911C205.354 62.9783 205.344 61.8742 205.245 60.9662C205.191 60.4958 205.112 60.0288 205.008 59.5672C205.008 59.5672 209.696 56.5891 209.552 60.221C209.53 60.6223 209.567 61.0247 209.662 61.4151C209.739 61.7734 209.908 62.1048 210.154 62.3754C210.4 62.6459 210.712 62.8459 211.06 62.955C211.623 63.1213 212.218 63.1408 212.791 63.0117C212.969 62.981 213.142 62.9216 213.302 62.8359C213.734 62.5453 218.062 63.2379 219.361 63.0926C220.659 62.9473 222.151 64.7513 222.151 64.7513L229.22 78.8727C229.22 78.8727 226.334 88.3244 229.22 86C232.105 83.6756 230.808 80.7598 230.808 80.7598Z" fill="#FABDBD"/>
<path d="M70.3428 85.76C70.3428 85.76 73.8051 72.7331 74.9592 75.3481C76.1133 77.963 70.5064 65.8854 69.0638 66.0306C68.6768 66.0841 68.3164 66.2589 68.0337 66.5304C67.2186 67.2567 66.7556 68.5003 66.7556 68.5003C66.7556 68.5003 67.3326 72.4226 66.6113 78.9599C66.5969 79.0863 66.5839 79.2127 66.5723 79.3348C65.9433 85.5554 67.2605 87.0226 67.2605 87.0226C67.2605 87.0226 53.267 92.3977 53.6998 85.4246C53.8354 83.2295 53.8152 81.6257 53.681 80.2848C53.5342 78.9122 53.2569 77.5569 52.8529 76.2375C52.511 75.0332 52.1028 73.7127 51.6801 71.9142C51.4766 71.0169 51.2085 70.1356 50.878 69.2775C50.8679 69.2513 50.8578 69.2252 50.8491 69.2005C50.1278 67.3977 49.4065 66.8151 48.9939 66.6263C48.6043 66.4556 48.2331 66.2453 47.886 65.9987C46.553 65.0297 43.6922 62.8579 41.1445 60.2923C37.6822 56.8058 36.9033 67.7985 36.9033 67.7985C36.9033 67.7985 37.192 82.2706 39.5002 78.3482C41.8085 74.4258 39.5001 66.7816 39.5001 66.7816C39.5001 66.7816 41.0003 53.1739 42.0101 55.7889C42.5295 57.1341 43.3546 57.8227 44.0298 58.1801C45.1452 58.7648 46.2132 59.437 47.2238 60.1906C47.9068 60.7104 48.6245 61.1822 49.3719 61.6027C50.9847 62.4743 52.9164 63.4578 54.5264 63.7164C54.7777 63.7582 55.0319 63.7801 55.2866 63.7818C55.4075 63.7857 55.5276 63.7615 55.6377 63.7111C55.7478 63.6607 55.8448 63.5855 55.9214 63.4913C56.3542 62.9784 56.3441 61.8744 56.2446 60.9664C56.1914 60.496 56.1124 60.029 56.008 59.5674C56.008 59.5674 60.6965 56.5893 60.5522 60.2212C60.5299 60.6225 60.5668 61.0249 60.6619 61.4153C60.7386 61.7736 60.9085 62.105 61.1541 62.3756C61.3997 62.6461 61.7123 62.8461 62.0598 62.9552C62.6228 63.1215 63.2184 63.141 63.7909 63.0119C63.9694 62.9812 64.1418 62.9218 64.3016 62.8361C64.7344 62.5455 69.0623 61.2381 70.3607 61.0928C71.659 60.9475 79 73.7515 79 73.7515L71.9311 83.8729C71.9311 83.8729 75.8851 93.8244 72.9998 91.5001C70.1145 89.1757 70.3428 85.76 70.3428 85.76Z" fill="#FABDBD"/>
<path d="M160.99 62.3555C160.585 63.0094 160.231 63.6917 159.93 64.3969C159.529 65.4849 159.527 66.6688 159.452 67.8216C159.347 69.4394 159.095 71.0448 158.7 72.6193C158.636 72.9092 158.547 73.1935 158.435 73.469C158.355 73.6544 158.251 73.8287 158.124 73.9871C157.983 74.156 157.817 74.3035 157.631 74.4249C157.347 74.6103 157.046 74.7706 156.733 74.9041C153.043 76.588 149.019 78.0749 144.992 77.4947C143.29 77.2038 141.643 76.6623 140.107 75.8885C138.649 75.1968 137 74.3756 135.489 74.9507C135.258 75.0658 135.008 75.1419 134.75 75.1761C134.7 75.177 134.65 75.1726 134.601 75.1632C134.103 75.0699 134.103 73.4275 133.989 72.9431C133.554 71.0831 133.488 69.5754 133.228 67.9589C133.09 67.0649 132.877 66.1837 132.59 65.3243C131.529 62.1897 131.208 58.8479 131.208 55.5631C131.208 55.3999 130.016 55.5631 129.618 55.5475C129.517 55.5475 129.462 55.532 129.485 55.4983C129.508 55.4661 129.535 55.4366 129.565 55.4102C129.704 55.3001 129.866 55.2214 130.039 55.1797L130.352 55.089C131.99 54.6357 133.798 54.4466 135.023 53.3197C136.295 52.1565 136.613 50.2991 136.558 48.5997C136.542 48.0531 136.269 46.7267 136.314 45.6257C136.776 45.7003 137.243 45.7393 137.711 45.7423C137.933 45.7492 138.154 45.7061 138.356 45.6163C138.558 45.5264 138.736 45.3923 138.877 45.2242C139.319 46.061 139.702 46.9265 140.022 47.8148C140.473 48.8976 140.818 50.0374 141.478 51.0167C142.538 52.6125 144.494 53.6616 146.44 53.501C148.385 53.3404 150.196 51.8793 150.543 50.0038C150.848 48.3588 150.14 45.991 150.156 44.2812C151.191 44.5778 152.285 44.6125 153.337 44.3823C153.382 44.4879 153.42 44.596 153.451 44.7061C154.048 46.706 154.843 49.0012 156.844 49.711C158.138 50.167 159.667 49.825 160.863 50.4882C160.955 50.5398 161.043 50.5969 161.128 50.6592C161.404 50.8597 161.642 51.1061 161.83 51.3871C162.321 52.1795 162.613 53.0744 162.681 53.9984C162.987 56.8868 162.398 59.7984 160.99 62.3555Z" fill="#6C63FF"/>
<path d="M217.043 73.2999C216.824 73.6725 216.632 74.0613 216.469 74.4632C216.253 75.0832 216.251 75.7578 216.211 76.4148C216.154 77.3367 216.018 78.2516 215.804 79.1488C215.77 79.314 215.722 79.476 215.661 79.633C215.618 79.7387 215.561 79.838 215.493 79.9283C215.416 80.0245 215.327 80.1086 215.226 80.1777C215.072 80.2834 214.91 80.3748 214.74 80.4509C212.745 81.4104 210.568 82.2578 208.39 81.9271C207.47 81.7614 206.579 81.4528 205.748 81.0118C204.959 80.6177 204.068 80.1497 203.25 80.4774C203.125 80.543 202.99 80.5864 202.85 80.6059C202.824 80.6063 202.797 80.6039 202.77 80.5985C202.501 80.5453 202.501 79.6094 202.439 79.3333C202.204 78.2734 202.168 77.4142 202.028 76.493C201.953 75.9836 201.655 75.4898 201.5 75C200.927 73.2137 200 71.8719 200 70C200 69.907 200.046 69.7123 200 69.5C199.946 69.5 199.987 68.5192 200 68.5C200.013 68.4816 200.03 69.357 200.046 69.342C200.121 69.2792 200.209 69.2344 200.303 69.2106L200.472 69.159C201.358 68.9006 202.336 68.7928 202.998 68.1507C203.686 67.4878 203.858 66.4294 203.828 65.4609C203.82 65.1494 203.672 64.3936 203.696 63.7662C203.946 63.8087 204.199 63.8309 204.452 63.8326C204.572 63.8366 204.691 63.812 204.801 63.7608C204.91 63.7096 205.007 63.6331 205.083 63.5374C205.322 64.0142 205.529 64.5074 205.702 65.0136C205.946 65.6307 206.132 66.2802 206.489 66.8383C207.063 67.7476 208.121 68.3455 209.173 68.254C210.225 68.1625 211.205 67.3299 211.393 66.2611C211.557 65.3236 211.175 63.9743 211.183 63C211.743 63.169 212.335 63.1888 212.904 63.0576C212.928 63.1177 212.948 63.1794 212.965 63.2421C213.288 64.3818 213.718 65.6897 214.8 66.0942C215.5 66.3541 216.327 66.1592 216.974 66.5371C217.024 66.5665 217.072 66.5991 217.117 66.6346C217.267 66.7488 217.395 66.8892 217.497 67.0494C217.763 67.5009 217.921 68.0109 217.957 68.5374C218.123 70.1834 217.804 71.8427 217.043 73.2999Z" fill="#6C63FF"/>
<path d="M68.0426 73.2999C67.8238 73.6725 67.6321 74.0613 67.4691 74.4632C67.2527 75.0832 67.2512 75.7578 67.2111 76.4148C67.1539 77.3367 67.0176 78.2516 66.8039 79.1488C66.7694 79.314 66.7214 79.476 66.6605 79.633C66.6177 79.7387 66.5613 79.838 66.4928 79.9283C66.4164 80.0245 66.3265 80.1086 66.2261 80.1777C66.0723 80.2834 65.9096 80.3748 65.7401 80.4509C63.7444 81.4104 61.568 82.2578 59.3902 81.9271C58.4695 81.7614 57.5786 81.4528 56.7479 81.0118C55.9593 80.6177 55.0675 80.1497 54.2503 80.4774C54.1249 80.543 53.9897 80.5864 53.8503 80.6059C53.8234 80.6063 53.7965 80.6039 53.77 80.5985C53.5005 80.5453 53.5005 79.6094 53.4388 79.3333C53.2037 78.2734 53.1679 77.4142 53.0274 76.493C52.9527 75.9836 52.8371 75.4814 52.6818 74.9916C52.1084 73.2054 51.9349 71.301 51.9349 69.4291C51.9349 69.3361 51.2897 69.4291 51.0747 69.4203C51.0202 69.4203 50.9901 69.4114 51.003 69.3922C51.0154 69.3738 51.0298 69.357 51.046 69.342C51.1211 69.2792 51.2087 69.2344 51.3026 69.2106L51.4718 69.159C52.3578 68.9006 53.3356 68.7928 53.998 68.1507C54.6862 67.4878 54.8582 66.4294 54.8281 65.4609C54.8195 65.1494 54.6718 64.3936 54.6962 63.7662C54.946 63.8087 55.1986 63.8309 55.4518 63.8326C55.5719 63.8366 55.6913 63.812 55.8007 63.7608C55.91 63.7096 56.0065 63.6331 56.0826 63.5374C56.3218 64.0142 56.5288 64.5074 56.702 65.0136C56.9457 65.6307 57.1321 66.2802 57.4891 66.8383C58.0626 67.7476 59.1206 68.3455 60.173 68.254C61.2253 68.1625 62.2046 67.3299 62.3924 66.2611C62.5573 65.3236 62.1745 63.9743 62.1831 63C62.7425 63.169 63.3345 63.1888 63.9035 63.0576C63.9277 63.1177 63.9483 63.1794 63.9652 63.2421C64.2877 64.3818 64.7179 65.6897 65.8003 66.0942C66.5 66.3541 67.3272 66.1592 67.9738 66.5371C68.0235 66.5665 68.0714 66.5991 68.1172 66.6346C68.2665 66.7488 68.3951 66.8892 68.4971 67.0494C68.7628 67.5009 68.9205 68.0109 68.9573 68.5374C69.1229 70.1834 68.8042 71.8427 68.0426 73.2999Z" fill="#6C63FF"/>
<path opacity="0.1" d="M147.68 41.0551C146.393 41.5797 145.008 41.7768 143.636 41.6303C142.264 41.4838 140.944 40.9979 139.783 40.2119C139.688 39.3285 139.547 38.4513 139.36 37.5843C139.36 37.5843 147.742 31.9908 147.484 38.8122C147.444 39.566 147.51 40.3218 147.68 41.0551Z" fill="#4D8270"/>
<path opacity="0.1" d="M210 61.7014C209.227 61.9532 208.394 62.0477 207.57 61.9774C206.746 61.9072 205.952 61.674 205.254 61.2968C205.197 60.8729 205.112 60.4519 205 60.0359C205 60.0359 210.037 57.3516 209.882 60.6251C209.858 60.9868 209.898 61.3495 210 61.7014Z" fill="#4D8270"/>
<path opacity="0.1" d="M61 61.7014C60.2268 61.9532 59.3944 62.0477 58.57 61.9774C57.7455 61.9072 56.9522 61.674 56.2542 61.2968C56.1971 60.8729 56.1122 60.4519 56 60.0359C56 60.0359 61.0372 57.3516 60.8822 60.6251C60.8582 60.9868 60.8979 61.3495 61 61.7014Z" fill="#4D8270"/>
<path d="M144.82 41.1554C149.846 41.1554 153.92 37.0737 153.92 32.0386C153.92 27.0036 149.846 22.9219 144.82 22.9219C139.794 22.9219 135.72 27.0036 135.72 32.0386C135.72 37.0737 139.794 41.1554 144.82 41.1554Z" fill="#FABDBD"/>
<path d="M208 62C210.761 62 213 59.7614 213 57C213 54.2386 210.761 52 208 52C205.239 52 203 54.2386 203 57C203 59.7614 205.239 62 208 62Z" fill="#FABDBD"/>
<path d="M59 62C61.7614 62 64 59.7614 64 57C64 54.2386 61.7614 52 59 52C56.2386 52 54 54.2386 54 57C54 59.7614 56.2386 62 59 62Z" fill="#FABDBD"/>
<path d="M136.859 33.7643C136.596 32.1158 136.19 30.0394 137.566 29.0962C138.057 28.798 138.625 28.651 139.199 28.6736C142.05 28.6445 144.774 30.6338 147.569 30.0526C148.459 29.8658 149.276 29.4256 149.922 28.7849C150.568 28.1441 151.015 27.3301 151.21 26.4408C151.405 25.5514 151.339 24.6246 151.021 23.7717C150.703 22.9188 150.145 22.1762 149.416 21.6332C148.316 20.8142 146.926 20.5184 145.581 20.241C142.044 19.5118 138.352 18.7853 134.86 19.7126C131.369 20.6399 128.177 23.7757 128.457 27.3738C128.589 29.0962 129.464 30.6602 130.38 32.129C131.076 33.2439 133.787 38.4693 135.103 38.5486C136.96 38.6569 137.041 34.8421 136.859 33.7643Z" fill="#555555"/>
<path d="M203.784 57.5168C203.634 56.6615 203.403 55.5843 204.185 55.095C204.464 54.9403 204.787 54.864 205.113 54.8757C206.733 54.8606 208.281 55.8927 209.869 55.5911C210.375 55.4943 210.839 55.2659 211.206 54.9335C211.573 54.601 211.827 54.1788 211.938 53.7174C212.048 53.256 212.011 52.7751 211.83 52.3327C211.649 51.8902 211.333 51.5049 210.918 51.2232C210.293 50.7983 209.503 50.6448 208.739 50.5009C206.73 50.1227 204.632 49.7458 202.648 50.2268C200.664 50.7079 198.851 52.3347 199.01 54.2014C199.085 55.095 199.582 55.9064 200.102 56.6684C200.498 57.2468 202.038 59.9577 202.786 59.9988C203.841 60.055 203.887 58.0759 203.784 57.5168Z" fill="#4D8270"/>
<path d="M54.7838 57.5168C54.634 56.6615 54.4032 55.5843 55.1854 55.095C55.4644 54.9403 55.7869 54.864 56.113 54.8757C57.7328 54.8606 59.2807 55.8927 60.8691 55.5911C61.3746 55.4943 61.8387 55.2659 62.2057 54.9335C62.5726 54.601 62.8268 54.1788 62.9376 53.7174C63.0484 53.256 63.0111 52.7751 62.8302 52.3327C62.6493 51.8902 62.3326 51.5049 61.918 51.2232C61.2931 50.7983 60.5034 50.6448 59.7392 50.5009C57.7298 50.1227 55.6319 49.7458 53.648 50.2268C51.664 50.7079 49.8509 52.3347 50.0097 54.2014C50.0846 55.095 50.5821 55.9064 51.1021 56.6684C51.4977 57.2468 53.0381 59.9577 53.7858 59.9988C54.8408 60.055 54.8872 58.0759 54.7838 57.5168Z" fill="#555555"/>
<path d="M159.018 83.3535C159.018 83.3535 140.709 87.8498 134.606 83.3535C134.606 83.3535 131.953 93.6685 132.749 98.9582C132.749 98.9582 145.751 99.7517 147.077 100.545C147.077 100.545 147.343 98.4292 148.669 99.4872C148.669 99.4872 153.18 94.1975 161.406 98.9582C161.406 98.9582 162.998 86.5274 159.018 83.3535Z" fill="#4D8270"/>
<path d="M215.515 85C215.515 85 205.456 87.3538 202.102 85C202.102 85 200.644 90.4 201.082 93.1692C201.082 93.1692 208.226 93.5846 208.955 94C208.955 94 209.1 92.8923 209.829 93.4462C209.829 93.4462 212.308 90.6769 216.827 93.1692C216.827 93.1692 217.702 86.6615 215.515 85Z" fill="#4D8270"/>
<path d="M66.5151 85C66.5151 85 56.4556 87.3538 53.1024 85C53.1024 85 51.6445 90.4 52.0819 93.1692C52.0819 93.1692 59.2256 93.5846 59.9545 94C59.9545 94 60.1003 92.8923 60.8293 93.4462C60.8293 93.4462 63.3077 90.6769 67.8272 93.1692C67.8272 93.1692 68.702 86.6615 66.5151 85Z" fill="#4D8270"/>
<path opacity="0.1" d="M149.408 21.2167C149.219 21.0772 149.022 20.9507 148.816 20.8379C149.364 21.4727 149.739 22.2429 149.903 23.0716C150.067 23.9003 150.015 24.7584 149.752 25.5602C149.489 26.3619 149.024 27.0793 148.404 27.6405C147.783 28.2017 147.029 28.5871 146.217 28.7582C143.403 29.3535 140.66 27.3159 137.79 27.3457C137.212 27.3226 136.641 27.4732 136.146 27.7787C134.761 28.7447 135.167 30.8716 135.432 32.5601C135.608 33.6641 135.536 37.5715 133.672 37.466H133.64C134.153 38.1019 134.63 38.5321 135 38.5484C136.858 38.6539 136.935 34.76 136.76 33.6425C136.494 31.9539 136.088 29.8271 137.474 28.861C137.968 28.5556 138.54 28.405 139.117 28.4281C141.988 28.3983 144.73 30.4359 147.544 29.8406C148.44 29.6493 149.263 29.1984 149.913 28.5421C150.563 27.8858 151.013 27.052 151.21 26.1411C151.406 25.2301 151.34 24.2808 151.019 23.4072C150.699 22.5336 150.138 21.7729 149.403 21.2167H149.408Z" fill="#4D8270"/>
<path opacity="0.1" d="M210.919 50.2139C210.812 50.1351 210.7 50.0637 210.584 50C210.894 50.3584 211.106 50.7932 211.199 51.2611C211.291 51.7289 211.262 52.2134 211.113 52.6661C210.964 53.1187 210.701 53.5237 210.35 53.8405C210 54.1574 209.573 54.375 209.114 54.4716C207.522 54.8077 205.971 53.6573 204.347 53.6741C204.02 53.6611 203.697 53.7461 203.418 53.9186C202.634 54.4639 202.863 55.6647 203.014 56.618C203.113 57.2413 203.072 59.4473 202.018 59.3877H202C202.29 59.7467 202.56 59.9896 202.769 59.9988C203.82 60.0584 203.864 57.86 203.765 57.2291C203.614 56.2758 203.385 55.075 204.168 54.5296C204.448 54.3572 204.771 54.2722 205.098 54.2852C206.721 54.2684 208.273 55.4188 209.864 55.0827C210.371 54.9747 210.836 54.7201 211.204 54.3496C211.572 53.979 211.826 53.5083 211.937 52.994C212.048 52.4797 212.011 51.9438 211.83 51.4506C211.649 50.9573 211.331 50.5279 210.916 50.2139H210.919Z" fill="#4D8270"/>
<path opacity="0.1" d="M61.9187 50.2139C61.8118 50.1351 61.6999 50.0637 61.5838 50C61.8937 50.3584 62.1056 50.7932 62.1985 51.2611C62.2915 51.7289 62.262 52.2134 62.1132 52.6661C61.9644 53.1187 61.7014 53.5237 61.3505 53.8405C60.9996 54.1574 60.5731 54.375 60.1136 54.4716C58.5218 54.8077 56.9705 53.6573 55.3472 53.6741C55.0205 53.6611 54.6972 53.7461 54.4176 53.9186C53.6337 54.4639 53.8635 55.6647 54.0137 56.618C54.1128 57.2413 54.0722 59.4473 53.018 59.3877H53C53.2898 59.7467 53.5601 59.9896 53.7689 59.9988C54.8201 60.0584 54.8636 57.86 54.7645 57.2291C54.6143 56.2758 54.3846 55.075 55.1685 54.5296C55.4481 54.3572 55.7713 54.2722 56.098 54.2852C57.7214 54.2684 59.2726 55.4188 60.8645 55.0827C61.371 54.9747 61.8362 54.7201 62.2039 54.3496C62.5717 53.979 62.8264 53.5083 62.9375 52.994C63.0485 52.4797 63.0111 51.9438 62.8299 51.4506C62.6486 50.9573 62.3311 50.5279 61.9156 50.2139H61.9187Z" fill="#4D8270"/>
<path opacity="0.1" d="M128.96 54.6547C128.96 54.6547 146.38 43.7046 200.486 55.4369C254.592 67.1691 286 57.7833 286 57.7833V70.037C286 70.037 225.295 76.5549 202.069 70.037C178.843 63.5191 145.78 59.7595 134.202 69.8519L128.96 54.6547Z" fill="#F86D70"/>
<path d="M129.48 55.1754C129.48 55.1754 146.401 44.2248 200.601 55.9576C254.802 67.6904 285.736 58.3042 285.736 58.3042L286 69.5155C286 69.5155 225.719 76.0337 202.452 69.5155C179.186 62.9973 146.33 58.4554 134.731 68.5482L129.48 55.1754Z" fill="#F86D70"/>
<path opacity="0.1" d="M123.24 71.9374C123.24 71.9374 105.788 82.8875 51.5825 71.1552C-2.6233 59.4229 0.0208923 68.8088 0.0208923 68.8088V56.5551C0.0208923 56.5551 26.7272 50.0371 49.996 56.5551C73.2649 63.073 106.389 66.8325 117.989 56.7402L123.24 71.9374Z" fill="#F86D70"/>
<path d="M122.72 71.4167C122.72 71.4167 105.828 82.3673 51.7226 70.6346C-2.38322 58.9018 0.78395 68.288 0.78395 68.288L0.52002 57.0767C0.52002 57.0767 26.6492 50.5585 49.8751 57.0767C73.101 63.5949 105.9 68.1368 117.478 58.044L122.72 71.4167Z" fill="#F86D70"/>
</svg>
