<svg width="107" height="107" viewBox="0 0 107 107" fill="none" xmlns="http://www.w3.org/2000/svg">
<path fill-rule="evenodd" clip-rule="evenodd" d="M53.5 107C83.0472 107 107 83.0472 107 53.5C107 23.9528 83.0472 0 53.5 0C23.9528 0 0 23.9528 0 53.5C0 83.0472 23.9528 107 53.5 107ZM52.3954 28.4371C50.0523 26.0939 46.2533 26.0939 43.9101 28.4371C41.567 30.7802 41.567 34.5792 43.9101 36.9224L60.9386 53.9508L43.9101 70.9793C41.567 73.3224 41.567 77.1214 43.9101 79.4646C46.2533 81.8077 50.0523 81.8077 52.3954 79.4646L73.6665 58.1935C76.0097 55.8503 76.0097 52.0513 73.6665 49.7082L52.3954 28.4371Z" fill="#D1D1D1"/>
</svg>
