<svg width="37" height="30" viewBox="0 0 37 30" fill="none" xmlns="http://www.w3.org/2000/svg">
<path d="M36.7562 3.88422C35.4227 4.47509 33.9903 4.87432 32.4844 5.05478C34.0382 4.12503 35.2007 2.66171 35.7549 0.93787C34.295 1.80499 32.6973 2.41535 31.0311 2.74241C29.9107 1.54609 28.4266 0.753146 26.8094 0.486693C25.1921 0.220241 23.5321 0.495185 22.0871 1.26884C20.6421 2.04249 19.4929 3.27157 18.818 4.76526C18.1431 6.25894 17.9802 7.93365 18.3546 9.52939C15.3966 9.38087 12.5029 8.61203 9.86121 7.27277C7.21955 5.93351 4.88902 4.05375 3.02085 1.7555C2.38208 2.85739 2.01478 4.13494 2.01478 5.49553C2.01407 6.72037 2.3157 7.92646 2.8929 9.00677C3.47011 10.0871 4.30505 11.0082 5.32364 11.6885C4.14234 11.6509 2.98711 11.3317 1.9541 10.7574V10.8533C1.95398 12.5711 2.54821 14.2362 3.63597 15.5658C4.72372 16.8955 6.238 17.8078 7.92185 18.1481C6.82601 18.4446 5.6771 18.4883 4.5619 18.2758C5.03698 19.754 5.9624 21.0466 7.20861 21.9726C8.45481 22.8987 9.95941 23.4119 11.5118 23.4403C8.87656 25.509 5.62208 26.6311 2.27189 26.6262C1.67844 26.6264 1.08549 26.5917 0.496094 26.5224C3.89673 28.7089 7.85533 29.8693 11.8982 29.8648C25.584 29.8648 33.0656 18.5297 33.0656 8.69899C33.0656 8.3796 33.0577 8.05702 33.0433 7.73763C34.4986 6.68521 35.7547 5.38198 36.753 3.88901L36.7562 3.88422V3.88422Z" fill="white"/>
</svg>
